<svg xmlns="http://www.w3.org/2000/svg" fill="none" viewBox="0 0 16 10"><path fill="#3c4043" fill-rule="evenodd" d="M1.5 0C.671573 0 0 .671573 0 1.5v7C0 9.32843.671573 10 1.5 10h13c.8284 0 1.5-.67157 1.5-1.5v-7c0-.828427-.6716-1.5-1.5-1.5zM5 7c-.55228 0-1 .44772-1 1 0 .55229.44772 1 1 1h6c.5523 0 1-.44771 1-1 0-.55228-.4477-1-1-1zM1 4.25c0-.13807.11193-.25.25-.25h1.5c.13807 0 .25.11193.25.25v1.5c0 .13807-.11193.25-.25.25H1.5c-.27614 0-.5-.22386-.5-.5zM1.5 1c-.27614 0-.5.22386-.5.5v1.25c0 .13807.11193.25.25.25h1.5c.13807 0 .25-.11193.25-.25v-1.5C3 1.11193 2.88807 1 2.75 1zM4 4.25c0-.13807.11193-.25.25-.25h1.5c.13807 0 .25.11193.25.25v1.5c0 .13807-.11193.25-.25.25h-1.5C4.11193 6 4 5.88807 4 5.75zM4.25 1c-.13807 0-.25.11193-.25.25v1.5c0 .13807.11193.25.25.25h1.5c.13807 0 .25-.11193.25-.25v-1.5C6 1.11193 5.88807 1 5.75 1zM7 4.25c0-.13807.11193-.25.25-.25h1.5c.13807 0 .25.11193.25.25v1.5c0 .13807-.11193.25-.25.25h-1.5C7.11193 6 7 5.88807 7 5.75zM7.25 1c-.13807 0-.25.11193-.25.25v1.5c0 .13807.11193.25.25.25h1.5c.13807 0 .25-.11193.25-.25v-1.5C9 1.11193 8.88807 1 8.75 1zM10 4.25c0-.13807.1119-.25.25-.25h1.5c.1381 0 .25.11193.25.25v1.5c0 .13807-.1119.25-.25.25h-1.5c-.1381 0-.25-.11193-.25-.25zM10.25 1c-.1381 0-.25.11193-.25.25v1.5c0 .13807.1119.25.25.25h1.5c.1381 0 .25-.11193.25-.25v-1.5c0-.13807-.1119-.25-.25-.25zM13 4.25c0-.13807.1119-.25.25-.25h1.5c.1381 0 .25.11193.25.25V5.5c0 .27614-.2239.5-.5.5h-1.25c-.1381 0-.25-.11193-.25-.25zM13.25 1c-.1381 0-.25.11193-.25.25v1.5c0 .13807.1119.25.25.25h1.5c.1381 0 .25-.11193.25-.25V1.5c0-.27614-.2239-.5-.5-.5z" clip-rule="evenodd"/></svg>